<?xml version="1.0" standalone="no"?>
<!DOCTYPE svg PUBLIC "-//W3C//DTD SVG 20010904//EN"
 "http://www.w3.org/TR/2001/REC-SVG-20010904/DTD/svg10.dtd">
<svg version="1.0" xmlns="http://www.w3.org/2000/svg"
 width="700.000000pt" height="700.000000pt" viewBox="0 0 700.000000 700.000000"
 preserveAspectRatio="xMidYMid meet">
<metadata>
Created by potrace 1.11, written by Peter Selinger 2001-2013
</metadata>
<g transform="translate(0.000000,700.000000) scale(0.100000,-0.100000)"
fill="#000000" stroke="none">
<path d="M2836 6112 c-2 -4 -295 -781 -649 -1727 -355 -946 -649 -1728 -653
-1738 -4 -11 -134 -82 -334 -182 l-327 -163 -436 -710 c-241 -390 -437 -712
-437 -716 0 -3 1575 -6 3500 -6 1925 0 3500 3 3500 6 0 3 -319 423 -709 933
l-710 928 -380 922 c-209 508 -382 926 -385 929 -4 3 -8 3 -10 1 -2 -2 -146
-267 -321 -589 -175 -322 -321 -589 -326 -593 -4 -5 -129 88 -277 208 l-271
216 -381 1144 c-210 630 -383 1145 -385 1145 -2 0 -6 -3 -9 -8z m278 -1795
c147 -500 265 -911 263 -914 -3 -2 -123 19 -266 48 -144 29 -263 50 -266 47
-3 -2 19 -173 49 -379 30 -206 51 -377 47 -380 -3 -3 -126 -30 -273 -59 l-267
-53 -218 -327 -218 -328 -265 -52 c-146 -29 -274 -58 -285 -65 -11 -7 -204
-175 -430 -373 -226 -198 -411 -359 -413 -357 -1 1 116 215 261 476 l264 474
383 220 384 220 473 1315 c518 1441 504 1403 508 1398 1 -2 123 -412 269 -911z
m1530 -1219 l-54 -696 54 -429 c29 -235 52 -430 50 -432 -2 -2 -195 44 -429
103 l-425 106 -227 0 -228 0 -264 -211 c-221 -177 -260 -205 -242 -173 12 22
108 190 214 374 l192 334 271 54 271 54 152 -101 c84 -56 159 -105 167 -108 9
-3 -32 89 -94 214 l-110 219 375 697 c207 384 377 696 378 695 1 -2 -22 -316
-51 -700z"/>
</g>
</svg>
